<?xml version="1.0" standalone="no"?><!DOCTYPE svg PUBLIC "-//W3C//DTD SVG 1.1//EN" "http://www.w3.org/Graphics/SVG/1.1/DTD/svg11.dtd"><svg t="1595493797699" class="icon" viewBox="0 0 1024 1024" version="1.1" xmlns="http://www.w3.org/2000/svg" p-id="587" xmlns:xlink="http://www.w3.org/1999/xlink" width="200" height="200"><defs><style type="text/css"></style></defs><path d="M512 1024C794.784 1024 1024 794.784 1024 512c0-282.768-229.216-512-512-512-282.75199999 0-512 229.232-512 512C0 794.784 229.248 1024 512 1024z m0-992C777.104 32 992 246.912 992 512 992 777.104 777.104 992 512 992c-265.05599999 0-480-214.896-480-480 0-265.088 214.944-479.99999999 480-480z" p-id="588"></path><path d="M593.12 772.36799999c6.256 6.256 16.368 6.256 22.624 1e-8s6.256-16.384 0-22.624L378 512 615.744 274.24c6.256-6.256 6.256-16.368 0-22.624s-16.368-6.256-22.624 0l-248.912 248.91200001c-3.168 3.152-4.704 7.328-4.656 11.45599999-0.048 4.14400001 1.488 8.304 4.65600001 11.472L593.12 772.36799999z" p-id="589"></path></svg>